<svg width="141" height="67" viewBox="0 0 141 67" fill="none" xmlns="http://www.w3.org/2000/svg">
<g id="Logo">
<g id="Group">
<path id="Vector" d="M75.0855 20.7534H67.5883V46.9575H75.0855V20.7534Z" fill="#32325D"/>
<path id="Vector_2" fill-rule="evenodd" clip-rule="evenodd" d="M59.5533 22.9698L59.0754 20.7536H52.6236V46.9577H60.091V29.1989C61.8533 26.8929 64.8403 27.3122 65.7662 27.6416V20.7536C64.8104 20.3943 61.3156 19.7354 59.5533 22.9698Z" fill="#32325D"/>
<path id="Vector_3" fill-rule="evenodd" clip-rule="evenodd" d="M124.4 33.9604C124.4 26.2938 120.697 20.2444 113.617 20.2444C106.508 20.2444 102.207 26.2938 102.207 33.9005C102.207 42.9147 107.285 47.4667 114.573 47.4667C118.128 47.4667 120.816 46.6581 122.847 45.5201V39.5306C120.816 40.5488 118.486 41.1777 115.529 41.1777C112.632 41.1777 110.063 40.1595 109.734 36.6257H124.341C124.341 36.2364 124.4 34.6791 124.4 33.9604ZM109.645 31.1153C109.645 27.7313 111.706 26.3237 113.588 26.3237C115.41 26.3237 117.351 27.7313 117.351 31.1153H109.645Z" fill="#32325D"/>
<path id="Vector_4" fill-rule="evenodd" clip-rule="evenodd" d="M90.6775 20.2444C87.7503 20.2444 85.8685 21.622 84.8231 22.5803L84.4348 20.7235H77.8634V55.6424L85.3309 54.0552L85.3607 45.58C86.436 46.3586 88.0191 47.4667 90.6477 47.4667C95.9943 47.4667 100.863 43.1542 100.863 33.6609C100.833 24.9761 95.9047 20.2444 90.6775 20.2444ZM88.8853 40.8782C87.123 40.8782 86.0776 40.2493 85.3607 39.4707L85.3309 28.3602C86.1075 27.4917 87.1828 26.8927 88.8853 26.8927C91.6035 26.8927 93.4853 29.9474 93.4853 33.8705C93.4853 37.8835 91.6334 40.8782 88.8853 40.8782Z" fill="#32325D"/>
<path id="Vector_5" fill-rule="evenodd" clip-rule="evenodd" d="M24.4266 28.3602C24.4266 27.1922 25.3825 26.743 26.9655 26.743C29.2356 26.743 32.1031 27.4318 34.3732 28.6596V21.622C31.894 20.6337 29.4447 20.2444 26.9655 20.2444C20.902 20.2444 16.8696 23.4188 16.8696 28.7195C16.8696 36.9851 28.2201 35.6674 28.2201 39.2311C28.2201 40.6087 27.0253 41.0579 25.3526 41.0579C22.8734 41.0579 19.7072 40.0397 17.1982 38.6621V45.7896C19.976 46.9875 22.7838 47.4966 25.3526 47.4966C31.5655 47.4966 35.8368 44.412 35.8368 39.0514C35.807 30.1271 24.4266 31.7143 24.4266 28.3602Z" fill="#32325D"/>
<path id="Vector_6" fill-rule="evenodd" clip-rule="evenodd" d="M44.6185 14.2549L37.3303 15.8122L37.3004 39.8001C37.3004 44.2324 40.616 47.4967 45.0367 47.4967C47.486 47.4967 49.2782 47.0474 50.2639 46.5084V40.429C49.3081 40.8184 44.5886 42.1959 44.5886 37.7637V27.1323H50.2639V20.7535H44.5886L44.6185 14.2549Z" fill="#32325D"/>
<path id="Vector_7" fill-rule="evenodd" clip-rule="evenodd" d="M67.5883 18.4775L75.0855 16.8604V10.781L67.5883 12.3682V18.4775Z" fill="#32325D"/>
</g>
</g>
</svg>
