<svg width="34" height="24" viewBox="0 0 34 24" fill="none" xmlns="http://www.w3.org/2000/svg">
<g id="Group 1">
<path id="Vector" d="M0.769287 20.3078C0.769287 21.287 1.1583 22.2262 1.85074 22.9186C2.54318 23.6111 3.48233 24.0001 4.46159 24.0001H30.3077C31.287 24.0001 32.2262 23.6111 32.9186 22.9186C33.611 22.2262 34.0001 21.287 34.0001 20.3078V15.6924H0.769287V20.3078Z" fill="#138808"/>
<path id="Vector_2" d="M34.0001 8.30769V3.69231C34.0001 2.71305 33.611 1.77389 32.9186 1.08145C32.2262 0.38901 31.287 0 30.3077 0H4.46159C3.48233 0 2.54318 0.38901 1.85074 1.08145C1.1583 1.77389 0.769287 2.71305 0.769287 3.69231L0.769287 8.30769H34.0001Z" fill="#FFAE5D"/>
<path id="Vector_3" d="M0.769287 8.00024H34.0001V16.0006H0.769287V8.00024Z" fill="#F7F7F7"/>
<path id="Vector_4" d="M17.3847 15.6922C19.4239 15.6922 21.077 14.0391 21.077 11.9999C21.077 9.96072 19.4239 8.30762 17.3847 8.30762C15.3455 8.30762 13.6924 9.96072 13.6924 11.9999C13.6924 14.0391 15.3455 15.6922 17.3847 15.6922Z" fill="#000080"/>
<path id="Vector_5" d="M17.3847 15.1153C19.1053 15.1153 20.5001 13.7205 20.5001 11.9999C20.5001 10.2793 19.1053 8.88452 17.3847 8.88452C15.6641 8.88452 14.2693 10.2793 14.2693 11.9999C14.2693 13.7205 15.6641 15.1153 17.3847 15.1153Z" fill="#F7F7F7"/>
<path id="Vector_6" d="M17.4769 10.8461L17.3846 11.4461L17.2923 10.8461L17.3846 9.04614L17.4769 10.8461ZM16.6203 9.14676L16.9969 10.9089L17.2416 11.4646L17.1751 10.8618L16.6203 9.14676ZM15.9077 9.44214L16.7274 11.0464L17.1077 11.52L16.888 10.9541L15.9077 9.44214ZM15.2957 9.91107L16.5031 11.2495L16.9932 11.6086L16.6342 11.1185L15.2957 9.91107ZM14.8268 10.5231L16.3388 11.5034L16.9046 11.7231L16.4311 11.3428L14.8268 10.5231ZM14.5314 11.2357L16.2465 11.7905L16.8492 11.8569L16.2936 11.6123L14.5314 11.2357ZM14.4308 12L16.2308 12.0923L16.8308 12L16.2308 11.9077L14.4308 12ZM14.5314 12.7643L16.2936 12.3877L16.8492 12.1431L16.2465 12.2095L14.5314 12.7643ZM14.8268 13.4769L16.4311 12.6572L16.9046 12.2769L16.3388 12.4966L14.8268 13.4769ZM15.2957 14.0889L16.6342 12.8815L16.9932 12.3914L16.5031 12.7504L15.2957 14.0889ZM15.9077 14.5578L16.888 13.0458L17.1077 12.48L16.7274 12.9535L15.9077 14.5578ZM16.6203 14.8532L17.1751 13.1381L17.2416 12.5354L16.9969 13.0911L16.6203 14.8532ZM17.3846 14.9538L17.4769 13.1538L17.3846 12.5538L17.2923 13.1538L17.3846 14.9538ZM18.1489 14.8532L17.7723 13.0911L17.5277 12.5354L17.5942 13.1381L18.1489 14.8532ZM18.8616 14.5578L18.0419 12.9535L17.6616 12.48L17.8812 13.0458L18.8616 14.5578ZM19.4736 14.0889L18.2662 12.7504L17.776 12.3914L18.1351 12.8815L19.4736 14.0889ZM19.9425 13.4769L18.4305 12.4966L17.8646 12.2769L18.3382 12.6572L19.9425 13.4769ZM20.2379 12.7643L18.5228 12.2095L17.92 12.1431L18.4757 12.3877L20.2379 12.7643ZM20.3385 12L18.5385 11.9077L17.9385 12L18.5385 12.0923L20.3385 12ZM20.2379 11.2357L18.4757 11.6123L17.92 11.8569L18.5228 11.7905L20.2379 11.2357ZM19.9425 10.5231L18.3382 11.3428L17.8646 11.7231L18.4305 11.5034L19.9425 10.5231ZM19.4736 9.91107L18.1351 11.1185L17.776 11.6086L18.2662 11.2495L19.4736 9.91107ZM18.8616 9.44214L17.8812 10.9541L17.6616 11.52L18.0419 11.0464L18.8616 9.44214ZM18.1489 9.14676L17.5942 10.8618L17.5277 11.4646L17.7723 10.9089L18.1489 9.14676Z" fill="#6666B3"/>
<g id="Group">
<path id="Vector_7" d="M16.9785 9.10068C17.0805 9.10068 17.1631 9.01802 17.1631 8.91606C17.1631 8.8141 17.0805 8.73145 16.9785 8.73145C16.8765 8.73145 16.7939 8.8141 16.7939 8.91606C16.7939 9.01802 16.8765 9.10068 16.9785 9.10068Z" fill="#000080"/>
<path id="Vector_8" d="M16.1939 9.31112C16.2959 9.31112 16.3785 9.22847 16.3785 9.12651C16.3785 9.02455 16.2959 8.94189 16.1939 8.94189C16.0919 8.94189 16.0093 9.02455 16.0093 9.12651C16.0093 9.22847 16.0919 9.31112 16.1939 9.31112Z" fill="#000080"/>
<path id="Vector_9" d="M15.4905 9.7164C15.5925 9.7164 15.6751 9.63374 15.6751 9.53178C15.6751 9.42982 15.5925 9.34717 15.4905 9.34717C15.3886 9.34717 15.3059 9.42982 15.3059 9.53178C15.3059 9.63374 15.3886 9.7164 15.4905 9.7164Z" fill="#000080"/>
<path id="Vector_10" d="M14.9164 10.2906C15.0183 10.2906 15.101 10.208 15.101 10.106C15.101 10.004 15.0183 9.92139 14.9164 9.92139C14.8144 9.92139 14.7318 10.004 14.7318 10.106C14.7318 10.208 14.8144 10.2906 14.9164 10.2906Z" fill="#000080"/>
<path id="Vector_11" d="M14.5112 10.994C14.6131 10.994 14.6958 10.9113 14.6958 10.8094C14.6958 10.7074 14.6131 10.6248 14.5112 10.6248C14.4092 10.6248 14.3265 10.7074 14.3265 10.8094C14.3265 10.9113 14.4092 10.994 14.5112 10.994Z" fill="#000080"/>
<path id="Vector_12" d="M14.3006 11.7784C14.4026 11.7784 14.4853 11.6958 14.4853 11.5938C14.4853 11.4918 14.4026 11.4092 14.3006 11.4092C14.1987 11.4092 14.116 11.4918 14.116 11.5938C14.116 11.6958 14.1987 11.7784 14.3006 11.7784Z" fill="#000080"/>
<path id="Vector_13" d="M14.3006 12.5909C14.4026 12.5909 14.4853 12.5083 14.4853 12.4063C14.4853 12.3043 14.4026 12.2217 14.3006 12.2217C14.1987 12.2217 14.116 12.3043 14.116 12.4063C14.116 12.5083 14.1987 12.5909 14.3006 12.5909Z" fill="#000080"/>
<path id="Vector_14" d="M14.5112 13.3753C14.6131 13.3753 14.6958 13.2927 14.6958 13.1907C14.6958 13.0888 14.6131 13.0061 14.5112 13.0061C14.4092 13.0061 14.3265 13.0888 14.3265 13.1907C14.3265 13.2927 14.4092 13.3753 14.5112 13.3753Z" fill="#000080"/>
<path id="Vector_15" d="M14.9164 14.0787C15.0183 14.0787 15.101 13.996 15.101 13.8941C15.101 13.7921 15.0183 13.7095 14.9164 13.7095C14.8144 13.7095 14.7318 13.7921 14.7318 13.8941C14.7318 13.996 14.8144 14.0787 14.9164 14.0787Z" fill="#000080"/>
<path id="Vector_16" d="M15.4905 14.6529C15.5925 14.6529 15.6751 14.5703 15.6751 14.4683C15.6751 14.3663 15.5925 14.2837 15.4905 14.2837C15.3886 14.2837 15.3059 14.3663 15.3059 14.4683C15.3059 14.5703 15.3886 14.6529 15.4905 14.6529Z" fill="#000080"/>
<path id="Vector_17" d="M16.1939 15.0582C16.2959 15.0582 16.3785 14.9755 16.3785 14.8736C16.3785 14.7716 16.2959 14.689 16.1939 14.689C16.0919 14.689 16.0093 14.7716 16.0093 14.8736C16.0093 14.9755 16.0919 15.0582 16.1939 15.0582Z" fill="#000080"/>
<path id="Vector_18" d="M16.9785 15.2686C17.0805 15.2686 17.1631 15.186 17.1631 15.084C17.1631 14.9821 17.0805 14.8994 16.9785 14.8994C16.8765 14.8994 16.7939 14.9821 16.7939 15.084C16.7939 15.186 16.8765 15.2686 16.9785 15.2686Z" fill="#000080"/>
<path id="Vector_19" d="M17.7908 15.2686C17.8928 15.2686 17.9754 15.186 17.9754 15.084C17.9754 14.9821 17.8928 14.8994 17.7908 14.8994C17.6889 14.8994 17.6062 14.9821 17.6062 15.084C17.6062 15.186 17.6889 15.2686 17.7908 15.2686Z" fill="#000080"/>
<path id="Vector_20" d="M18.5754 15.0582C18.6774 15.0582 18.76 14.9755 18.76 14.8736C18.76 14.7716 18.6774 14.689 18.5754 14.689C18.4735 14.689 18.3908 14.7716 18.3908 14.8736C18.3908 14.9755 18.4735 15.0582 18.5754 15.0582Z" fill="#000080"/>
<path id="Vector_21" d="M19.2788 14.6529C19.3808 14.6529 19.4634 14.5703 19.4634 14.4683C19.4634 14.3663 19.3808 14.2837 19.2788 14.2837C19.1768 14.2837 19.0942 14.3663 19.0942 14.4683C19.0942 14.5703 19.1768 14.6529 19.2788 14.6529Z" fill="#000080"/>
<path id="Vector_22" d="M19.8529 14.0787C19.9549 14.0787 20.0376 13.996 20.0376 13.8941C20.0376 13.7921 19.9549 13.7095 19.8529 13.7095C19.751 13.7095 19.6683 13.7921 19.6683 13.8941C19.6683 13.996 19.751 14.0787 19.8529 14.0787Z" fill="#000080"/>
<path id="Vector_23" d="M20.2582 13.3753C20.3601 13.3753 20.4428 13.2927 20.4428 13.1907C20.4428 13.0888 20.3601 13.0061 20.2582 13.0061C20.1562 13.0061 20.0735 13.0888 20.0735 13.1907C20.0735 13.2927 20.1562 13.3753 20.2582 13.3753Z" fill="#000080"/>
<path id="Vector_24" d="M20.4687 12.5909C20.5706 12.5909 20.6533 12.5083 20.6533 12.4063C20.6533 12.3043 20.5706 12.2217 20.4687 12.2217C20.3667 12.2217 20.2841 12.3043 20.2841 12.4063C20.2841 12.5083 20.3667 12.5909 20.4687 12.5909Z" fill="#000080"/>
<path id="Vector_25" d="M20.4687 11.7784C20.5706 11.7784 20.6533 11.6958 20.6533 11.5938C20.6533 11.4918 20.5706 11.4092 20.4687 11.4092C20.3667 11.4092 20.2841 11.4918 20.2841 11.5938C20.2841 11.6958 20.3667 11.7784 20.4687 11.7784Z" fill="#000080"/>
<path id="Vector_26" d="M20.2582 10.994C20.3601 10.994 20.4428 10.9113 20.4428 10.8094C20.4428 10.7074 20.3601 10.6248 20.2582 10.6248C20.1562 10.6248 20.0735 10.7074 20.0735 10.8094C20.0735 10.9113 20.1562 10.994 20.2582 10.994Z" fill="#000080"/>
<path id="Vector_27" d="M19.8529 10.2906C19.9549 10.2906 20.0376 10.208 20.0376 10.106C20.0376 10.004 19.9549 9.92139 19.8529 9.92139C19.751 9.92139 19.6683 10.004 19.6683 10.106C19.6683 10.208 19.751 10.2906 19.8529 10.2906Z" fill="#000080"/>
<path id="Vector_28" d="M19.2788 9.7164C19.3808 9.7164 19.4634 9.63374 19.4634 9.53178C19.4634 9.42982 19.3808 9.34717 19.2788 9.34717C19.1768 9.34717 19.0942 9.42982 19.0942 9.53178C19.0942 9.63374 19.1768 9.7164 19.2788 9.7164Z" fill="#000080"/>
<path id="Vector_29" d="M18.5754 9.31112C18.6774 9.31112 18.76 9.22847 18.76 9.12651C18.76 9.02455 18.6774 8.94189 18.5754 8.94189C18.4735 8.94189 18.3908 9.02455 18.3908 9.12651C18.3908 9.22847 18.4735 9.31112 18.5754 9.31112Z" fill="#000080"/>
<path id="Vector_30" d="M17.7908 9.10068C17.8928 9.10068 17.9754 9.01802 17.9754 8.91606C17.9754 8.8141 17.8928 8.73145 17.7908 8.73145C17.6889 8.73145 17.6062 8.8141 17.6062 8.91606C17.6062 9.01802 17.6889 9.10068 17.7908 9.10068Z" fill="#000080"/>
<path id="Vector_31" d="M17.3847 12.8307C17.8435 12.8307 18.2154 12.4588 18.2154 12C18.2154 11.5411 17.8435 11.1692 17.3847 11.1692C16.9258 11.1692 16.5539 11.5411 16.5539 12C16.5539 12.4588 16.9258 12.8307 17.3847 12.8307Z" fill="#000080"/>
</g>
</g>
</svg>
